# xmcd CD database file
#
# Track frame offsets:
#	150
#	36472
#	59722
#	85635
#	111322
#	131760
#	155535
#	188760
#	218460
#
# Disc length: 3348 seconds
#
# Revision: 0
# Processed by: cddbd v1.5.2PL0 Copyright (c) Steve Scherf et al.
# Submitted via: CDex 1.51
#
DISCID=7d0d1209
DTITLE=Gil Manly - Detour Ahead
DYEAR=1994
DGENRE=Jazz
TTITLE0=Antonio's Song
TTITLE1=Sugar
TTITLE2=Detour Ahead
TTITLE3=When I Fall In Love
TTITLE4=Body And Soul
TTITLE5=Evolution
TTITLE6=Astonish Me In The Morning
TTITLE7=The Sky In Crying
TTITLE8=Small Day Tomorrow
EXTD=YEAR: 1994
EXTT0=
EXTT1=
EXTT2=
EXTT3=
EXTT4=
EXTT5=
EXTT6=
EXTT7=
EXTT8=
PLAYORDER=
